{"title":"The.5,000.Fingers.Of.Dr.T.1953.HQ.1080p.x264.AC3.[FrOnkY]","uid":12125686,"size":3669016454,"categoryP":"video","categoryS":"hd___movies","magnet":"?xt=urn:btih:69f648a22d0f9327cfe7308920c14cadebcd0a70&amp;dn=The.5%2C000.Fingers.Of.Dr.T.1953.HQ.1080p.x264.AC3.%5BFrOnkY%5D&amp;tr=udp%3A%2F%2Ftracker.openbittorrent.com%3A80&amp;tr=udp%3A%2F%2Fopen.demonii.com%3A1337&amp;tr=udp%3A%2F%2Ftracker.coppersurfer.tk%3A6969&amp;tr=udp%3A%2F%2Fexodus.desync.com%3A6969","seeders":1,"leechers":0,"uploader":"HDmEntEs","files":1,"time":1436920980,"description":"The.5,000.Fingers.Of.Dr.T.1953.HQ.1080p.x264.AC3.[FrOnkY].mkv\n\n\nFormat                                   : Matroska\nFormat version                           : Version 4 / Version 2\nFile size                                : 3.42 GiB\nDuration                                 : 1h 28mn\nOverall bit rate                         : 5 509 Kbps\nWriting application                      : mkvmerge v6.9.1 ('Blue Panther')\nWriting library                          : libebml v1.3.0 + libmatroska v1.4.1\nAttachements                             : The5,000FingersOfDr.T.jpg\n\nVideo\nID                                       : 1\nFormat                                   : AVC\nFormat/Info                              : Advanced Video Codec\nFormat profile                           : High L4.0\nFormat settings, CABAC                   : Yes\nFormat settings, ReFrames                : 5 frames\nCodec ID                                 : V_MPEG4/ISO/AVC\nDuration                                 : 1h 28mn\nBit rate                                 : 5 000 Kbps\nWidth                                    : 1 440 pixels\nHeight                                   : 1 080 pixels\nDisplay aspect ratio                     : 4:3\nFrame rate mode                          : Constant\nFrame rate                               : 23.976 fps\nColor space                              : YUV\nChroma subsampling                       : 4:2:0\nBit depth                                : 8 bits\nScan type                                : Progressive\nBits/(Pixel*Frame)                       : 0.134\nStream size                              : 3.23 GiB (95%)\nWriting library                          : x264 core 142 r2491 24e4fed\nLanguage                                 : English\nDefault                                  : Yes\nForced                                   : No\n\nAudio\nID                                       : 2\nFormat                                   : AC-3\nFormat/Info                              : Audio Coding 3\nMode extension                           : CM (complete main)\nFormat settings, Endianness              : Big\nCodec ID                                 : A_AC3\nDuration                                 : 1h 28mn\nBit rate mode                            : Constant\nBit rate                                 : 192 Kbps\nChannel(s)                               : 2 channels\nChannel positions                        : Front: L R\nSampling rate                            : 48.0 KHz\nBit depth                                : 16 bits\nStream size                              : 122 MiB (3%)\nLanguage                                 : English\nDefault                                  : Yes\nForced                                   : No\n\nText #1\nID                                       : 3\nFormat                                   : UTF-8\nCodec ID                                 : S_TEXT/UTF8\nCodec ID/Info                            : UTF-8 Plain Text\nLanguage                                 : Spanish\nDefault                                  : No\nForced                                   : No\n\nText #2\nID                                       : 4\nFormat                                   : UTF-8\nCodec ID                                 : S_TEXT/UTF8\nCodec ID/Info                            : UTF-8 Plain Text\nLanguage                                 : Spanish\nDefault                                  : No\nForced                                   : No\n\nText #3\nID                                       : 5\nFormat                                   : UTF-8\nCodec ID                                 : S_TEXT/UTF8\nCodec ID/Info                            : UTF-8 Plain Text\nLanguage                                 : French\nDefault                                  : No\nForced                                   : No\n\nText #4\nID                                       : 6\nFormat                                   : UTF-8\nCodec ID                                 : S_TEXT/UTF8\nCodec ID/Info                            : UTF-8 Plain Text\nLanguage                                 : Portuguese\nDefault                                  : No\nForced                                   : No\n\nMenu\n00:00:00.000                             : en:Chapter 01\n00:03:08.555                             : en:Chapter 02\n00:06:14.111                             : en:Chapter 03\n00:09:16.999                             : en:Chapter 04\n00:12:02.888                             : en:Chapter 05\n00:15:15.777                             : en:Chapter 06\n00:18:41.666                             : en:Chapter 07\n00:21:42.444                             : en:Chapter 08\n00:24:54.333                             : en:Chapter 09\n00:27:43.111                             : en:Chapter 10\n00:30:58.222                             : en:Chapter 11\n00:34:11.888                             : en:Chapter 12\n00:37:09.111                             : en:Chapter 13\n00:39:05.888                             : en:Chapter 14\n00:43:02.111                             : en:Chapter 15\n00:45:52.555                             : en:Chapter 16\n00:48:47.999                             : en:Chapter 17\n00:50:08.222                             : en:Chapter 18\n00:56:22.999                             : en:Chapter 19\n00:58:32.888                             : en:Chapter 20\n01:01:54.999                             : en:Chapter 21\n01:05:08.555                             : en:Chapter 22\n01:07:58.888                             : en:Chapter 23\n01:11:31.000                             : en:Chapter 24\n01:15:39.999                             : en:Chapter 25\n01:20:29.666                             : en:Chapter 26\n01:21:55.777                             : en:Chapter 27\n01:24:21.111                             : en:Chapter 28\n\n &lt;a href=&quot;\nhttp://i.imgur.com/0Y7BQhn.jpg&quot; rel=&quot;nofollow&quot; target=&quot;_NEW&quot;&gt;\nhttp://i.imgur.com/0Y7BQhn.jpg&lt;/a&gt;","torrent":{"xt":"urn:btih:69f648a22d0f9327cfe7308920c14cadebcd0a70","amp;dn":"The.5%2C000.Fingers.Of.Dr.T.1953.HQ.1080p.x264.AC3.%5BFrOnkY%5D","amp;tr":["udp%3A%2F%2Ftracker.openbittorrent.com%3A80","udp%3A%2F%2Fopen.demonii.com%3A1337","udp%3A%2F%2Ftracker.coppersurfer.tk%3A6969","udp%3A%2F%2Fexodus.desync.com%3A6969"],"infoHash":"69f648a22d0f9327cfe7308920c14cadebcd0a70","infoHashBuffer":{"type":"Buffer","data":[105,246,72,162,45,15,147,39,207,231,48,137,32,193,76,173,235,205,10,112]},"announce":[],"urlList":[]}}